<svg width="35" height="35" viewBox="0 0 35 35" fill="none" xmlns="http://www.w3.org/2000/svg">
<path d="M26.25 14.5833H24.4125C23.8669 12.4702 22.7395 10.5525 21.1585 9.04807C19.5774 7.54367 17.6061 6.5129 15.4684 6.0729C13.3308 5.6329 11.1127 5.8013 9.06597 6.55898C7.01929 7.31666 5.22616 8.63323 3.89034 10.3591C2.55453 12.085 1.72959 14.1509 1.50926 16.3222C1.28893 18.4935 1.68205 20.683 2.64394 22.642C3.60584 24.601 5.09794 26.251 6.9507 27.4044C8.80346 28.5577 10.9426 29.1683 13.125 29.1667H26.25C28.1839 29.1667 30.0386 28.3984 31.406 27.031C32.7735 25.6635 33.5417 23.8089 33.5417 21.875C33.5417 19.9411 32.7735 18.0865 31.406 16.719C30.0386 15.3516 28.1839 14.5833 26.25 14.5833Z" stroke="#296109" stroke-width="2" stroke-linecap="round" stroke-linejoin="round"/>
</svg>
